# xmcd CD database file
#
# Track frame offsets:
#	150
#	13945
#	43853
#	72580
#	87412
#	105761
#	132137
#	153313
#	174163
#	196880
#	211575
#	231902
#
# Disc length: 3414 seconds
#
# Revision: 0
# Processed by: cddbd v1.5.2PL0 Copyright (c) Steve Scherf et al.
# Submitted via: CDex 1.51
#
DISCID=960d540c
DTITLE=Relax Music Voyage - Colours Relax
DYEAR=2011
DGENRE=New Age
TTITLE0=Club Arbath
TTITLE1=Cosmic Wanderer
TTITLE2=Cosmic
TTITLE3=Fade Away
TTITLE4=Fight On Star
TTITLE5=Go To Siberia
TTITLE6=Happy Moon
TTITLE7=Athmosphere
TTITLE8=Living In Moskow
TTITLE9=Mars The Mission
TTITLE10=Moskow Morning
TTITLE11=My Girl
EXTD=YEAR: 2011
EXTT0=
EXTT1=
EXTT2=
EXTT3=
EXTT4=
EXTT5=
EXTT6=
EXTT7=
EXTT8=
EXTT9=
EXTT10=
EXTT11=
PLAYORDER=
